
<svg x="0px" y="0px" viewBox="0 0 624 320" enable-background="new 0 0 624 320">
	<circle fill="#444444" cx="40" cy="9" r="8"/>
	<circle fill="#444444" cx="24" cy="24" r="8"/>
	<circle fill="#444444" cx="136" cy="104" r="8"/>
	<circle fill="#444444" cx="136" cy="72" r="8"/>
	<circle fill="#444444" cx="152" cy="56" r="8"/>
	<circle fill="#444444" cx="168" cy="56" r="8"/>
	<circle fill="#444444" cx="152" cy="152" r="8"/>
	<circle fill="#444444" cx="168" cy="152" r="8"/>
	<circle fill="#444444" cx="168" cy="104" r="8"/>
	<circle fill="#444444" cx="8" cy="56" r="8"/>
	<circle fill="#444444" cx="8" cy="72" r="8"/>
	<circle fill="#444444" cx="56" cy="9" r="8"/>
	<circle fill="#444444" cx="56" cy="104" r="8"/>
	<polygon fill="#444444" points="32,96 40,80 48,96 "/>
	<polygon fill="#444444" points="128,128 136,112 144,128 "/>
	<polygon fill="#444444" points="32,112 40,96 48,112 "/>
	<polygon fill="#444444" points="80,78.5 94.5,64 96,64 96,65.5 81.5,80 80,80 "/>
	<polygon fill="#444444" points="64,94.5 78.5,80 80,80 80,81.5 65.5,96 64,96 "/>
	<polygon fill="#444444" points="48,94.5 62.5,80 64,80 64,81.5 49.5,96 48,96 "/>
	<polygon fill="#444444" points="144,142.5 158.5,128 160,128 160,129.5 145.5,144 144,144 "/>
	<polygon fill="#444444" points="160,142.5 174.5,128 176,128 176,129.5 161.5,144 160,144 "/>
	<polygon fill="#444444" points="128,142.5 142.5,128 144,128 144,129.5 129.5,144 128,144 "/>
	<polygon fill="#444444" points="0,47.5 14.5,33 16,33 16,34.5 1.5,49 0,49 "/>
	<polygon fill="#444444" points="80,47.5 94.5,33 96,33 96,34.5 81.5,49 80,49 "/>
	<polygon fill="#444444" points="176,110.5 190.5,96 192,96 192,97.5 177.5,112 176,112 "/>
	<rect x="64" y="16" fill="#444444" width="16" height="16"/>
	<rect x="80" y="48" fill="#444444" width="16" height="16"/>
	<rect x="16" y="80" fill="#444444" width="16" height="16"/>
	<polygon fill="#444444" points="80,38 74,38 74,32 69,32 69,38 64,38 64,43 69,43 69,48 74,48 74,43 80,43 "/>
	<polygon fill="#444444" points="240,134 234,134 234,128 229,128 229,134 224,134 224,139 229,139 229,144 234,144 234,139 240,139 "/>
	<polygon fill="#444444" points="240,86 234,86 234,80 229,80 229,86 224,86 224,91 229,91 229,96 234,96 234,91 240,91 "/>
	<polygon fill="#444444" points="192,150 186,150 186,144 181,144 181,150 176,150 176,155 181,155 181,160 186,160 186,155 192,155 "/>
	<polygon fill="#444444" points="240,166 234,166 234,160 229,160 229,166 224,166 224,171 229,171 229,176 234,176 234,171 240,171 "/>
	<polygon fill="#444444" points="80,70 74,70 74,64 69,64 69,70 64,70 64,75 69,75 69,80 74,80 74,75 80,75 "/>
	<polygon fill="#444444" points="64,23 57,23 57,16 55,16 55,23 48,23 48,25 55,25 55,32 57,32 57,25 64,25 "/>
	<polygon fill="#444444" points="193,55 186,55 186,48 184,48 184,55 177,55 177,57 184,57 184,64 186,64 186,57 193,57 "/>
	<polygon fill="#444444" points="320,119 313,119 313,112 311,112 311,119 304,119 304,121 311,121 311,128 313,128 313,121 320,121 "/>
	<polygon fill="#444444" points="368,119 361,119 361,112 359,112 359,119 352,119 352,121 359,121 359,128 361,128 361,121 368,121 "/>
	<polygon fill="#444444" points="512,183 505,183 505,176 503,176 503,183 496,183 496,185 503,185 503,192 505,192 505,185 512,185 "/>
	<polygon fill="#444444" points="624,215 617,215 617,208 615,208 615,215 608,215 608,217 615,217 615,224 617,224 617,217 624,217 "/>
	<polygon fill="#444444" points="560,295 553,295 553,288 551,288 551,295 544,295 544,297 551,297 551,304 553,304 553,297 560,297 "/>
	<polygon fill="#444444" points="496,231 489,231 489,224 487,224 487,231 480,231 480,233 487,233 487,240 489,240 489,233 496,233 "/>
	<polygon fill="#444444" points="480,231 473,231 473,224 471,224 471,231 464,231 464,233 471,233 471,240 473,240 473,233 480,233 "/>
	<rect x="128" y="48" fill="#444444" width="16" height="16"/>
	<polygon fill="#444444" points="128,96 136,80 144,96 "/>
	<polygon fill="#444444" points="272,192 280,176 288,192 "/>
	<polygon fill="#444444" points="320,208 328,192 336,208 "/>
	<polygon fill="#444444" points="368,256 376,240 384,256 "/>
	<polygon fill="#444444" points="464,288 472,272 480,288 "/>
	<polygon fill="#444444" points="320,192 328,176 336,192 "/>
	<polygon fill="#444444" points="320,176 328,160 336,176 "/>
	<polygon fill="#444444" points="320,160 328,144 336,160 "/>
	<polygon fill="#444444" points="320,144 328,128 336,144 "/>
	<circle fill="#444444" cx="232" cy="152" r="8"/>
	<circle fill="#444444" cx="232" cy="120" r="8"/>
	<circle fill="#444444" cx="296" cy="120" r="8"/>
	<circle fill="#444444" cx="392" cy="248" r="8"/>
	<circle fill="#444444" cx="344" cy="120" r="8"/>
	<circle fill="#444444" cx="456" cy="184" r="8"/>
	<circle fill="#444444" cx="456" cy="200" r="8"/>
	<circle fill="#444444" cx="584" cy="264" r="8"/>
	<circle fill="#444444" cx="616" cy="264" r="8"/>
	<circle fill="#444444" cx="600" cy="280" r="8"/>
	<circle fill="#444444" cx="600" cy="296" r="8"/>
	<circle fill="#444444" cx="616" cy="280" r="8"/>
	<circle fill="#444444" cx="616" cy="312" r="8"/>
	<circle fill="#444444" cx="616" cy="248" r="8"/>
	<circle fill="#444444" cx="616" cy="232" r="8"/>
	<circle fill="#444444" cx="456" cy="216" r="8"/>
	<circle fill="#444444" cx="456" cy="232" r="8"/>
	<circle fill="#444444" cx="456" cy="248" r="8"/>
	<circle fill="#444444" cx="456" cy="280" r="8"/>
	<circle fill="#444444" cx="472" cy="184" r="8"/>
	<circle fill="#444444" cx="488" cy="184" r="8"/>
	<circle fill="#444444" cx="504" cy="232" r="8"/>
	<circle fill="#444444" cx="408" cy="152" r="8"/>
	<circle fill="#444444" cx="408" cy="184" r="8"/>
	<circle fill="#444444" cx="232" cy="184" r="8"/>
	<circle fill="#444444" cx="248" cy="184" r="8"/>
	<circle fill="#444444" cx="264" cy="184" r="8"/>
	<rect x="224" y="96" fill="#444444" width="16" height="16"/>
	<polygon fill="#444444" points="128,160 136,144 144,160 "/>
	<polygon fill="#444444" points="160,102 154,102 154,96 149,96 149,102 144,102 144,107 149,107 149,112 154,112 154,107 160,107 "/>
	<polygon fill="#444444" points="336,118 330,118 330,112 325,112 325,118 320,118 320,123 325,123 325,128 330,128 330,123 336,123 "/>
	<polygon fill="#444444" points="336,214 330,214 330,208 325,208 325,214 320,214 320,219 325,219 325,224 330,224 330,219 336,219 "/>
	<polygon fill="#444444" points="384,230 378,230 378,224 373,224 373,230 368,230 368,235 373,235 373,240 378,240 378,235 384,235 "/>
	<polygon fill="#444444" points="560,310 554,310 554,304 549,304 549,310 544,310 544,315 549,315 549,320 554,320 554,315 560,315 "/>
	<polygon fill="#444444" points="560,278 554,278 554,272 549,272 549,278 544,278 544,283 549,283 549,288 554,288 554,283 560,283 "/>
	<polygon fill="#444444" points="560,262 554,262 554,256 549,256 549,262 544,262 544,267 549,267 549,272 554,272 554,267 560,267 "/>
	<polygon fill="#444444" points="560,246 554,246 554,240 549,240 549,246 544,246 544,251 549,251 549,256 554,256 554,251 560,251 "/>
	<polygon fill="#444444" points="560,230 554,230 554,224 549,224 549,230 544,230 544,235 549,235 549,240 554,240 554,235 560,235 "/>
	<polygon fill="#444444" points="512,278 506,278 506,272 501,272 501,278 496,278 496,283 501,283 501,288 506,288 506,283 512,283 "/>
	<polygon fill="#444444" points="560,214 554,214 554,208 549,208 549,214 544,214 544,219 549,219 549,224 554,224 554,219 560,219 "/>
	<polygon fill="#444444" points="576,246 570,246 570,240 565,240 565,246 560,246 560,251 565,251 565,256 570,256 570,251 576,251 "/>
	<polygon fill="#444444" points="256,174.5 270.5,160 272,160 272,161.5 257.5,176 256,176 "/>
	<polygon fill="#444444" points="272,174.5 286.5,160 288,160 288,161.5 273.5,176 272,176 "/>
	<polygon fill="#444444" points="240,174.5 254.5,160 256,160 256,161.5 241.5,176 240,176 "/>
	<polygon fill="#444444" points="400,238.5 414.5,224 416,224 416,225.5 401.5,240 400,240 "/>
	<polygon fill="#444444" points="384,238.5 398.5,224 400,224 400,225.5 385.5,240 384,240 "/>
	<polygon fill="#444444" points="480,222.5 494.5,208 496,208 496,209.5 481.5,224 480,224 "/>
	<polygon fill="#444444" points="480,286.5 494.5,272 496,272 496,273.5 481.5,288 480,288 "/>
	<polygon fill="#444444" points="464,222.5 478.5,208 480,208 480,209.5 465.5,224 464,224 "/>
	<polygon fill="#444444" points="576,254.5 590.5,240 592,240 592,241.5 577.5,256 576,256 "/>
	<polygon fill="#444444" points="560,270.5 574.5,256 576,256 576,257.5 561.5,272 560,272 "/>
	<polygon fill="#444444" points="608,302.5 622.5,288 624,288 624,289.5 609.5,304 608,304 "/>
	<polygon fill="#444444" points="448,270.5 462.5,256 464,256 464,257.5 449.5,272 448,272 "/>
	<polygon fill="#444444" points="240,126.5 254.5,112 256,112 256,113.5 241.5,128 240,128 "/>
	<rect x="400" y="160" fill="#444444" width="16" height="16"/>
	<rect x="400" y="192" fill="#444444" width="16" height="16"/>
	<rect x="400" y="208" fill="#444444" width="16" height="16"/>
	<rect x="560" y="224" fill="#444444" width="16" height="16"/>
</svg>
